<svg width="65" height="51" viewBox="0 0 65 51" fill="none" xmlns="http://www.w3.org/2000/svg">
<path d="M22.7245 41.0925C22.7245 46.01 18.8325 50 14.034 50C9.2355 50 5.3435 46.01 5.3435 41.089M22.7245 41.0925C22.7245 36.175 18.8325 32.1815 14.034 32.1815C9.2355 32.1815 5.3435 36.1715 5.3435 41.089M22.7245 41.0925L42.2755 41.089M5.3435 41.089H1V4.5C1 3.57174 1.36875 2.6815 2.02513 2.02513C2.6815 1.36875 3.57174 1 4.5 1H38.7755C39.7038 1 40.594 1.36875 41.2504 2.02513C41.9068 2.6815 42.2755 3.57174 42.2755 4.5V12.137M42.2755 41.089H44.449M42.2755 41.089V12.137M42.2755 12.137H50.189C51.1224 12.1371 52.0463 12.3239 52.9064 12.6863C53.7666 13.0488 54.5455 13.5796 55.1975 14.2475L64 23.274V41.089H61.8265M61.8265 41.089C61.8265 46.01 57.938 50 53.1395 50C48.341 50 44.449 46.01 44.449 41.089M61.8265 41.089C61.8265 36.1715 57.938 32.1815 53.1395 32.1815C48.341 32.1815 44.449 36.1715 44.449 41.089" stroke="#0284D7" stroke-width="2" stroke-linecap="round" stroke-linejoin="round"/>
</svg>
