<svg width="60" height="60" viewBox="0 0 60 60" fill="none" xmlns="http://www.w3.org/2000/svg">
<path d="M35.8 4.6801C35.8 2.6472 34.1528 1 32.1199 1H27.883C25.8472 1 24.2 2.6472 24.2 4.6801C24.2 6.3563 23.0516 7.7947 21.4885 8.4095C21.241 8.51003 20.9965 8.6125 20.7548 8.7169C19.2149 9.3839 17.385 9.1809 16.196 7.9948C15.5055 7.30592 14.57 6.91905 13.5947 6.91905C12.6194 6.91905 11.6839 7.30592 10.9934 7.9948L7.9948 10.9934C7.30592 11.6839 6.91905 12.6194 6.91905 13.5947C6.91905 14.57 7.30592 15.5055 7.9948 16.196C9.1838 17.385 9.3868 19.212 8.714 20.7548C8.60832 20.9976 8.5068 21.2422 8.4095 21.4885C7.7947 23.0516 6.3563 24.2 4.6801 24.2C2.6472 24.2 1 25.8472 1 27.8801V32.1199C1 34.1528 2.6472 35.8 4.6801 35.8C6.3563 35.8 7.7947 36.9484 8.4095 38.5115C8.51003 38.759 8.61153 39.0035 8.714 39.2452C9.3839 40.7851 9.1809 42.615 7.9948 43.804C7.30592 44.4945 6.91905 45.43 6.91905 46.4053C6.91905 47.3806 7.30592 48.3162 7.9948 49.0066L10.9934 52.0052C11.6839 52.6941 12.6194 53.081 13.5947 53.081C14.57 53.081 15.5055 52.6941 16.196 52.0052C17.385 50.8162 19.212 50.6132 20.7548 51.2831C20.9965 51.3894 21.241 51.4919 21.4885 51.5905C23.0516 52.2053 24.2 53.6437 24.2 55.3199C24.2 57.3528 25.8472 59 27.8801 59H32.1199C34.1528 59 35.8 57.3528 35.8 55.3199C35.8 53.6437 36.9484 52.2053 38.5115 51.5876C38.759 51.4909 39.0035 51.3904 39.2452 51.286C40.7851 50.6132 42.615 50.8191 43.8011 52.0052C44.4917 52.695 45.4278 53.0824 46.4039 53.0824C47.3799 53.0824 48.316 52.695 49.0066 52.0052L52.0052 49.0066C52.6941 48.3162 53.081 47.3806 53.081 46.4053C53.081 45.43 52.6941 44.4945 52.0052 43.804C50.8162 42.615 50.6132 40.788 51.2831 39.2452C51.3894 39.0035 51.4919 38.759 51.5905 38.5115C52.2053 36.9484 53.6437 35.8 55.3199 35.8C57.3528 35.8 59 34.1528 59 32.1199V27.883C59 25.8501 57.3528 24.2029 55.3199 24.2029C53.6437 24.2029 52.2053 23.0545 51.5876 21.4914C51.4903 21.2451 51.3888 21.0005 51.2831 20.7577C50.6161 19.2178 50.8191 17.3879 52.0052 16.1989C52.6941 15.5084 53.081 14.5729 53.081 13.5976C53.081 12.6223 52.6941 11.6868 52.0052 10.9963L49.0066 7.9977C48.3162 7.30882 47.3806 6.92194 46.4053 6.92194C45.43 6.92194 44.4945 7.30882 43.804 7.9977C42.615 9.1867 40.788 9.3897 39.2452 8.7198C39.0024 8.61315 38.7578 8.51067 38.5115 8.4124C36.9484 7.7947 35.8 6.3534 35.8 4.6801Z" stroke="#0284D7" stroke-width="2"/>
<path d="M41.6 30C41.6 33.0765 40.3779 36.027 38.2025 38.2025C36.027 40.3779 33.0765 41.6 30 41.6C26.9235 41.6 23.973 40.3779 21.7976 38.2025C19.6222 36.027 18.4 33.0765 18.4 30C18.4 26.9235 19.6222 23.973 21.7976 21.7976C23.973 19.6222 26.9235 18.4 30 18.4C33.0765 18.4 36.027 19.6222 38.2025 21.7976C40.3779 23.973 41.6 26.9235 41.6 30Z" stroke="#0284D7" stroke-width="2"/>
</svg>
