<svg width="19" height="15" viewBox="0 0 19 15" fill="none" xmlns="http://www.w3.org/2000/svg">
<path d="M0.750122 2.66667C0.750122 2.15834 0.952056 1.67082 1.3115 1.31138C1.67095 0.951934 2.15846 0.75 2.66679 0.75H16.0835C16.5918 0.75 17.0793 0.951934 17.4387 1.31138C17.7982 1.67082 18.0001 2.15834 18.0001 2.66667V12.25C18.0001 12.7583 17.7982 13.2458 17.4387 13.6053C17.0793 13.9647 16.5918 14.1667 16.0835 14.1667H2.66679C2.15846 14.1667 1.67095 13.9647 1.3115 13.6053C0.952056 13.2458 0.750122 12.7583 0.750122 12.25V2.66667Z" stroke="#0284D7" stroke-width="1.5" stroke-linecap="round" stroke-linejoin="round"/>
<path d="M0.750122 2.66663L9.37512 8.41663L18.0001 2.66663" stroke="#0284D7" stroke-width="1.5" stroke-linecap="round" stroke-linejoin="round"/>
</svg>
